<svg xmlns="http://www.w3.org/2000/svg" version="1.1" xmlns:xlink="http://www.w3.org/1999/xlink" xmlns:svgjs="http://svgjs.dev/svgjs" width="1440" height="560" preserveAspectRatio="none" viewBox="0 0 1440 560"><g mask="url(&quot;#SvgjsMask1009&quot;)" fill="none"><path d="M-35.61853712178196 73.80883956847752L147.10366926590314 133.37146546699984 115.04775804264348-31.541901352207674z" fill="rgba(93, 151, 246, 1)" class="triangle-float2"></path><path d="M146.94120604662191 76.99543173876071L4.242466901463104-51.737551437630536-33.54931022830618 111.95661944628898z" fill="rgba(93, 151, 246, 1)" class="triangle-float1"></path><path d="M111.217,236.303C160.536,236.824,216.409,228.864,239.496,185.279C261.784,143.202,234.066,95.05,206.664,56.11C184.205,24.194,150.148,5.714,111.217,2.989C65.758,-0.193,15.273,3.37,-10.569,40.904C-39.283,82.61,-39.24,139.647,-12.457,182.619C13.02,223.496,63.053,235.795,111.217,236.303" fill="rgba(93, 151, 246, 1)" class="triangle-float1"></path><path d="M1285.9098875068983 144.3207339944188L1453.6796493456666 153.11317464323338 1294.7023281557128-23.449027844349615z" fill="rgba(93, 151, 246, 1)" class="triangle-float3"></path><path d="M1425.2044688678045 147.69013378881604L1503.0062063592122 67.1240761508871 1343.256251156615-9.295501267259993z" fill="rgba(93, 151, 246, 1)" class="triangle-float3"></path><path d="M1354.307975687166 184.61028696969888L1496.7800558414456 95.58385057852044 1407.753619450267-46.88822957575911 1265.2815392959874 42.13820681541932z" fill="rgba(93, 151, 246, 1)" class="triangle-float3"></path><path d="M-49.41450917215268 583.4355303262738L116.95052637643114 606.8166112875648 140.33160733772212 440.451575738981-26.03342821086168 417.07049477769z" fill="rgba(93, 151, 246, 1)" class="triangle-float1"></path><path d="M185.56817776240692 529.1855024478675L91.62376997932145 389.9071902586205-47.65454220992555 483.851598041706 46.289865573159915 623.129910230953z" fill="rgba(93, 151, 246, 1)" class="triangle-float1"></path><path d="M37.704,540.914C58.028,539.719,77.169,531.949,88.463,515.01C101.248,495.835,108.074,471.654,97.557,451.148C86.244,429.09,62.469,414.935,37.704,416.041C14.483,417.078,-1.75,436.086,-13.556,456.109C-25.617,476.565,-36.854,501.335,-24.57,521.658C-12.523,541.588,14.456,542.281,37.704,540.914" fill="rgba(93, 151, 246, 1)" class="triangle-float2"></path><path d="M1371.055,563.32C1395.046,561.636,1411.884,542.398,1423.82,521.519C1435.64,500.842,1444.239,476.299,1432.721,455.452C1420.915,434.085,1395.464,426.377,1371.055,426.022C1345.878,425.656,1319.895,432.481,1306.199,453.61C1291.355,476.509,1289.798,506.46,1303.685,529.951C1317.354,553.073,1344.261,565.201,1371.055,563.32" fill="rgba(93, 151, 246, 1)" class="triangle-float2"></path><path d="M1372.496028879639 372.5090084048184L1264.5077104523004 501.20447484880674 1393.2031768962886 609.1927932761453 1501.1914953236274 480.497326832157z" fill="rgba(93, 151, 246, 1)" class="triangle-float1"></path><path d="M1279.987887128996 422.73683123129047L1300.4619368210608 589.4845847070326 1446.735640604738 402.26278153922556z" fill="rgba(93, 151, 246, 1)" class="triangle-float3"></path></g><defs><mask id="SvgjsMask1009"><rect width="1440" height="560" fill="#ffffff"></rect></mask><style>
                @keyframes float1 {
                    0%{transform: translate(0, 0)}
                    50%{transform: translate(-10px, 0)}
                    100%{transform: translate(0, 0)}
                }

                .triangle-float1 {
                    animation: float1 5s infinite;
                }

                @keyframes float2 {
                    0%{transform: translate(0, 0)}
                    50%{transform: translate(-5px, -5px)}
                    100%{transform: translate(0, 0)}
                }

                .triangle-float2 {
                    animation: float2 4s infinite;
                }

                @keyframes float3 {
                    0%{transform: translate(0, 0)}
                    50%{transform: translate(0, -10px)}
                    100%{transform: translate(0, 0)}
                }

                .triangle-float3 {
                    animation: float3 6s infinite;
                }
            </style></defs></svg>